<?xml version="1.0" standalone="no"?>
<!DOCTYPE svg PUBLIC "-//W3C//DTD SVG 20010904//EN"
 "http://www.w3.org/TR/2001/REC-SVG-20010904/DTD/svg10.dtd">
<svg version="1.0" xmlns="http://www.w3.org/2000/svg"
 width="208.000000pt" height="208.000000pt" viewBox="0 0 208.000000 208.000000"
 preserveAspectRatio="xMidYMid meet">
<metadata>
Created by potrace 1.14, written by Peter Selinger 2001-2017
</metadata>
<g transform="translate(0.000000,208.000000) scale(0.100000,-0.100000)"
fill="#000000" stroke="none">
<path d="M742 1725 c-26 -12 -108 -70 -132 -95 -3 -3 -43 -37 -90 -75 -47 -38
-87 -72 -90 -75 -3 -3 -41 -35 -85 -70 -44 -35 -82 -67 -85 -70 -3 -3 -30 -25
-60 -50 -30 -25 -57 -47 -60 -50 -3 -3 -27 -23 -55 -45 -81 -64 -87 -72 -81
-92 6 -19 18 -20 209 -20 111 -1 208 -2 216 -2 7 -1 -11 -20 -40 -43 -30 -23
-56 -45 -59 -48 -3 -3 -57 -48 -120 -100 -155 -128 -148 -121 -183 -152 -27
-23 -30 -30 -21 -45 10 -16 31 -18 223 -18 l212 0 -28 -25 c-16 -14 -116 -96
-221 -184 -128 -105 -192 -164 -190 -175 3 -15 62 -16 663 -16 l661 0 49 40
c27 22 131 108 230 190 100 83 201 166 225 185 24 19 57 47 74 61 17 15 59 50
94 78 34 29 62 55 62 59 -1 29 -20 32 -230 33 l-213 0 25 22 c14 12 42 36 63
52 20 17 42 35 49 40 6 6 36 30 66 55 30 25 57 47 60 50 3 3 39 33 80 67 98
79 106 89 90 108 -10 12 -51 15 -220 17 l-209 3 142 117 c78 64 152 124 164
135 11 10 40 34 63 52 63 52 72 62 66 78 -3 8 -6 16 -6 18 0 3 -287 4 -637 4
-530 0 -644 -2 -671 -14z"/>
</g>
</svg>
