<svg width="364" height="50" viewBox="0 0 364 50" fill="none" xmlns="http://www.w3.org/2000/svg">
<path d="M88 46C87.4477 46 87 45.5523 87 45V11.9617C87 11.4094 87.4477 10.9617 88 10.9617H91.6968C92.1753 10.9617 92.5867 11.3006 92.6783 11.7702L92.9771 13.3017C93.061 13.7316 93.6318 13.8632 93.9271 13.5397C94.5783 12.8262 95.3524 12.1789 96.2493 11.5979C97.5407 10.7823 99.2033 10.3745 101.237 10.3745C103.497 10.3745 105.515 10.9291 107.29 12.0383C109.066 13.1475 110.47 14.6645 111.504 16.5894C112.537 18.5142 113.053 20.7 113.053 23.1468C113.053 25.5936 112.537 27.7794 111.504 29.7043C110.47 31.5965 109.066 33.0972 107.29 34.2064C105.515 35.283 103.497 35.8213 101.237 35.8213C99.4293 35.8213 97.8474 35.4787 96.4915 34.7936C95.6353 34.361 94.8822 33.8179 94.232 33.1642C93.8844 32.8148 93.1985 33.0438 93.1985 33.5367V45C93.1985 45.5523 92.7508 46 92.1985 46H88ZM99.9297 30.3404C101.899 30.3404 103.529 29.6716 104.821 28.334C106.112 26.9965 106.758 25.2674 106.758 23.1468C106.758 21.0262 106.112 19.2809 104.821 17.9106C103.529 16.5404 101.899 15.8553 99.9297 15.8553C97.9281 15.8553 96.2816 16.5404 94.9903 17.9106C93.7312 19.2482 93.1017 20.9773 93.1017 23.0979C93.1017 25.2184 93.7312 26.9638 94.9903 28.334C96.2816 29.6716 97.9281 30.3404 99.9297 30.3404Z" fill="#181818"/>
<path d="M125.418 35.8213C123.352 35.8213 121.657 35.495 120.334 34.8426C119.01 34.1575 118.025 33.2603 117.38 32.1511C116.734 31.0418 116.411 29.8184 116.411 28.4809C116.411 26.2298 117.283 24.4028 119.026 23C120.77 21.5972 123.385 20.8957 126.871 20.8957H132.973V20.3085C132.973 18.6447 132.505 17.4213 131.568 16.6383C130.632 15.8553 129.47 15.4638 128.082 15.4638C126.823 15.4638 125.725 15.7738 124.789 16.3936C124.077 16.8401 123.571 17.4562 123.269 18.2421C123.098 18.6898 122.699 19.0362 122.22 19.0362H118.088C117.5 19.0362 117.033 18.5288 117.15 17.9523C117.417 16.638 117.946 15.466 118.736 14.4362C119.769 13.1312 121.092 12.1362 122.707 11.4511C124.321 10.7333 126.129 10.3745 128.13 10.3745C131.552 10.3745 134.248 11.239 136.217 12.9681C138.187 14.6972 139.171 17.144 139.171 20.3085V34.234C139.171 34.7863 138.724 35.234 138.171 35.234H134.755C134.26 35.234 133.839 34.8711 133.766 34.3809L133.531 32.7973C133.461 32.3225 132.788 32.1887 132.491 32.5656C131.891 33.3267 131.164 33.9878 130.309 34.5489C129.05 35.3972 127.42 35.8213 125.418 35.8213ZM126.823 30.9277C128.598 30.9277 129.97 30.3404 130.939 29.166C131.827 28.1232 132.423 26.862 132.727 25.3821C132.788 25.0828 132.553 24.8106 132.247 24.8106H127.549C125.903 24.8106 124.724 25.1206 124.014 25.7404C123.304 26.3277 122.949 27.0617 122.949 27.9426C122.949 28.8887 123.304 29.6227 124.014 30.1447C124.724 30.6667 125.661 30.9277 126.823 30.9277Z" fill="#181818"/>
<path d="M144.634 35.234C144.081 35.234 143.634 34.7863 143.634 34.234V11.9617C143.634 11.4094 144.081 10.9617 144.634 10.9617H148.217C148.724 10.9617 149.151 11.3412 149.21 11.8447L149.399 13.4517C149.457 13.9413 150.164 14.0879 150.468 13.6994C151.101 12.8884 151.874 12.2042 152.786 11.6468C154.207 10.7986 155.869 10.3745 157.774 10.3745C160.744 10.3745 163.053 11.3206 164.699 13.2128C166.345 15.105 167.169 17.878 167.169 21.5319V34.234C167.169 34.7863 166.721 35.234 166.169 35.234H161.97C161.418 35.234 160.97 34.7863 160.97 34.234V22.1192C160.97 20.0312 160.551 18.4326 159.711 17.3234C158.872 16.2142 157.564 15.6596 155.789 15.6596C154.045 15.6596 152.609 16.2794 151.479 17.5192C150.381 18.7589 149.832 20.4879 149.832 22.7064V34.234C149.832 34.7863 149.385 35.234 148.832 35.234H144.634Z" fill="#181818"/>
<path d="M183.169 35.8213C180.844 35.8213 178.746 35.283 176.873 34.2064C175.033 33.1298 173.564 31.6454 172.466 29.7532C171.401 27.8284 170.868 25.6099 170.868 23.0979C170.868 20.5858 171.417 18.3837 172.515 16.4915C173.613 14.5667 175.081 13.066 176.922 11.9894C178.794 10.9128 180.893 10.3745 183.217 10.3745C185.509 10.3745 187.575 10.9128 189.416 11.9894C191.288 13.066 192.757 14.5667 193.822 16.4915C194.92 18.3837 195.469 20.5858 195.469 23.0979C195.469 25.6099 194.92 27.8284 193.822 29.7532C192.757 31.6454 191.288 33.1298 189.416 34.2064C187.543 35.283 185.461 35.8213 183.169 35.8213ZM183.169 30.3894C184.783 30.3894 186.187 29.7858 187.382 28.5787C188.576 27.339 189.173 25.5121 189.173 23.0979C189.173 20.6837 188.576 18.8731 187.382 17.666C186.187 16.4262 184.799 15.8064 183.217 15.8064C181.571 15.8064 180.15 16.4262 178.956 17.666C177.793 18.8731 177.212 20.6837 177.212 23.0979C177.212 25.5121 177.793 27.339 178.956 28.5787C180.15 29.7858 181.554 30.3894 183.169 30.3894Z" fill="#181818"/>
<path d="M200.558 35.234C200.006 35.234 199.558 34.7863 199.558 34.234V1C199.558 0.447715 200.006 0 200.558 0H204.757C205.309 0 205.757 0.447715 205.757 1V34.234C205.757 34.7863 205.309 35.234 204.757 35.234H200.558Z" fill="#181818"/>
<path d="M218.918 35.8213C216.852 35.8213 215.157 35.495 213.834 34.8426C212.51 34.1575 211.525 33.2603 210.88 32.1511C210.234 31.0418 209.911 29.8184 209.911 28.4809C209.911 26.2298 210.783 24.4028 212.526 23C214.269 21.5972 216.884 20.8957 220.371 20.8957H226.473V20.3085C226.473 18.6447 226.005 17.4213 225.068 16.6383C224.132 15.8553 222.97 15.4638 221.582 15.4638C220.323 15.4638 219.225 15.7738 218.289 16.3936C217.577 16.8401 217.07 17.4562 216.769 18.2421C216.598 18.6898 216.199 19.0362 215.719 19.0362H211.588C211 19.0362 210.533 18.5288 210.65 17.9523C210.917 16.638 211.446 15.466 212.235 14.4362C213.269 13.1312 214.592 12.1362 216.206 11.4511C217.821 10.7333 219.628 10.3745 221.63 10.3745C225.052 10.3745 227.748 11.239 229.717 12.9681C231.687 14.6972 232.671 17.144 232.671 20.3085V34.234C232.671 34.7863 232.223 35.234 231.671 35.234H228.255C227.76 35.234 227.339 34.8711 227.266 34.3809L227.031 32.7972C226.961 32.3225 226.288 32.1887 225.991 32.5656C225.391 33.3267 224.664 33.9878 223.809 34.5489C222.55 35.3972 220.92 35.8213 218.918 35.8213ZM220.323 30.9277C222.098 30.9277 223.47 30.3404 224.439 29.166C225.327 28.1232 225.923 26.862 226.226 25.3821C226.288 25.0828 226.053 24.8106 225.747 24.8106H221.049C219.402 24.8106 218.224 25.1206 217.514 25.7404C216.804 26.3277 216.449 27.0617 216.449 27.9426C216.449 28.8887 216.804 29.6227 217.514 30.1447C218.224 30.6667 219.16 30.9277 220.323 30.9277Z" fill="#181818"/>
<path d="M236.584 35.234C236.032 35.234 235.584 34.7863 235.584 34.234V30.5685C235.584 30.3268 235.671 30.0933 235.83 29.9111L247.113 16.9776C247.395 16.6542 247.165 16.1489 246.736 16.1489H236.729C236.177 16.1489 235.729 15.7012 235.729 15.1489V11.9617C235.729 11.4094 236.177 10.9617 236.729 10.9617H253.906C254.458 10.9617 254.906 11.4094 254.906 11.9617V15.6228C254.906 15.8672 254.816 16.1031 254.654 16.286L243.197 29.2152C242.911 29.5378 243.14 30.0468 243.572 30.0468H254.148C254.7 30.0468 255.148 30.4945 255.148 31.0468V34.234C255.148 34.7863 254.7 35.234 254.148 35.234H236.584Z" fill="#181818"/>
<path d="M261.517 35.5766C260.387 35.5766 259.451 35.2177 258.708 34.5C257.998 33.7823 257.643 32.9177 257.643 31.9064C257.643 30.8624 257.998 29.9816 258.708 29.2638C259.451 28.5461 260.387 28.1872 261.517 28.1872C262.647 28.1872 263.567 28.5461 264.277 29.2638C265.02 29.9816 265.391 30.8624 265.391 31.9064C265.391 32.9177 265.02 33.7823 264.277 34.5C263.567 35.2177 262.647 35.5766 261.517 35.5766Z" fill="#181818"/>
<path d="M280.802 35.8213C278.348 35.8213 276.185 35.283 274.313 34.2064C272.44 33.1298 270.955 31.6291 269.857 29.7043C268.792 27.7794 268.259 25.5773 268.259 23.0979C268.259 20.6184 268.792 18.4163 269.857 16.4915C270.955 14.5667 272.44 13.066 274.313 11.9894C276.185 10.9128 278.348 10.3745 280.802 10.3745C283.869 10.3745 286.451 11.1901 288.55 12.8213C290.346 14.1895 291.586 16.0118 292.271 18.2882C292.453 18.8943 291.977 19.4766 291.344 19.4766H286.794C286.344 19.4766 285.959 19.1708 285.78 18.7578C285.417 17.9228 284.856 17.2489 284.095 16.7362C283.158 16.0511 282.045 15.7085 280.753 15.7085C279.042 15.7085 277.589 16.361 276.395 17.666C275.2 18.9709 274.603 20.7816 274.603 23.0979C274.603 25.4142 275.2 27.2248 276.395 28.5298C277.589 29.8348 279.042 30.4872 280.753 30.4872C282.045 30.4872 283.158 30.161 284.095 29.5085C284.859 28.9935 285.422 28.3059 285.784 27.4454C285.96 27.0281 286.347 26.7192 286.799 26.7192H291.335C291.971 26.7192 292.447 27.3064 292.257 27.9131C291.57 30.1065 290.334 31.9107 288.55 33.3255C286.451 34.9894 283.869 35.8213 280.802 35.8213Z" fill="#181818"/>
<path d="M308.143 35.8213C305.819 35.8213 303.72 35.283 301.848 34.2064C300.008 33.1298 298.539 31.6454 297.441 29.7532C296.376 27.8284 295.843 25.6099 295.843 23.0979C295.843 20.5858 296.392 18.3837 297.49 16.4915C298.587 14.5667 300.056 13.066 301.896 11.9894C303.769 10.9128 305.867 10.3745 308.192 10.3745C310.484 10.3745 312.55 10.9128 314.39 11.9894C316.263 13.066 317.732 14.5667 318.797 16.4915C319.895 18.3837 320.444 20.5858 320.444 23.0979C320.444 25.6099 319.895 27.8284 318.797 29.7532C317.732 31.6454 316.263 33.1298 314.39 34.2064C312.518 35.283 310.436 35.8213 308.143 35.8213ZM308.143 30.3894C309.758 30.3894 311.162 29.7858 312.356 28.5787C313.551 27.339 314.148 25.5121 314.148 23.0979C314.148 20.6837 313.551 18.8731 312.356 17.666C311.162 16.4262 309.774 15.8064 308.192 15.8064C306.545 15.8064 305.125 16.4262 303.93 17.666C302.768 18.8731 302.187 20.6837 302.187 23.0979C302.187 25.5121 302.768 27.339 303.93 28.5787C305.125 29.7858 306.529 30.3894 308.143 30.3894Z" fill="#181818"/>
<path d="M325.533 35.234C324.981 35.234 324.533 34.7863 324.533 34.234V11.9617C324.533 11.4094 324.981 10.9617 325.533 10.9617H329.154C329.645 10.9617 330.063 11.3173 330.141 11.8013L330.332 12.976C330.405 13.4255 331.015 13.5658 331.32 13.2276C331.96 12.5179 332.716 11.9258 333.589 11.4511C334.88 10.7333 336.365 10.3745 338.044 10.3745C341.432 10.3745 343.919 11.5836 345.506 14.002C345.715 14.32 346.194 14.3414 346.43 14.0425C347.231 13.0239 348.229 12.1927 349.424 11.5489C350.909 10.766 352.523 10.3745 354.266 10.3745C357.398 10.3745 359.803 11.3206 361.482 13.2128C363.161 15.105 364 17.878 364 21.5319V34.234C364 34.7863 363.552 35.234 363 35.234H358.801C358.249 35.234 357.801 34.7863 357.801 34.234V22.1192C357.801 20.0312 357.398 18.4326 356.591 17.3234C355.816 16.2142 354.605 15.6596 352.959 15.6596C351.28 15.6596 349.924 16.2794 348.891 17.5192C347.89 18.7589 347.39 20.4879 347.39 22.7064V34.234C347.39 34.7863 346.942 35.234 346.39 35.234H342.191C341.639 35.234 341.191 34.7863 341.191 34.234V22.1192C341.191 20.0312 340.788 18.4326 339.981 17.3234C339.174 16.2142 337.931 15.6596 336.252 15.6596C334.605 15.6596 333.266 16.2794 332.233 17.5192C331.232 18.7589 330.731 20.4879 330.731 22.7064V34.234C330.731 34.7863 330.284 35.234 329.731 35.234H325.533Z" fill="#181818"/>
<path d="M23.1891 1.75478C24.1653 0.946961 25.3926 0.504959 26.6596 0.504959H67.5414C68.3914 0.504959 68.7747 1.56913 68.1198 2.1111L45.2613 21.0285C44.2851 21.8363 43.0578 22.2783 41.7907 22.2783H0.909031C0.0589718 22.2783 -0.324268 21.2142 0.330613 20.6722L23.1891 1.75478Z" fill="#9B242D"/>
<path d="M23.1891 15.3631C24.1653 14.5553 25.3926 14.1133 26.6596 14.1133H67.5414C68.3914 14.1133 68.7747 15.1775 68.1198 15.7195L45.2613 34.6369C44.2851 35.4447 43.0578 35.8867 41.7907 35.8867H0.909031C0.0589718 35.8867 -0.324268 34.8225 0.330613 34.2805L23.1891 15.3631Z" fill="#6B181F"/>
<path fill-rule="evenodd" clip-rule="evenodd" d="M53.5037 14.1133L45.1479 21.0285C44.1718 21.8363 42.9444 22.2783 41.6774 22.2783H14.7199L23.0758 15.3631C24.0519 14.5553 25.2792 14.1133 26.5463 14.1133H53.5037Z" fill="#8A1F28"/>
<path d="M23.1891 28.9715C24.1653 28.1637 25.3926 27.7217 26.6596 27.7217H67.5414C68.3914 27.7217 68.7747 28.7859 68.1198 29.3278L45.2613 48.2452C44.2851 49.053 43.0578 49.495 41.7907 49.495H0.909031C0.0589718 49.495 -0.324268 48.4309 0.330613 47.8889L23.1891 28.9715Z" fill="#4B1015"/>
<path fill-rule="evenodd" clip-rule="evenodd" d="M53.5037 27.7217L45.1479 34.6369C44.1718 35.4447 42.9444 35.8867 41.6774 35.8867H14.7199L23.0758 28.9715C24.0519 28.1637 25.2792 27.7217 26.5463 27.7217H53.5037Z" fill="#60161C"/>
</svg>
